<?xml version="1.0" encoding="UTF-8" standalone="no"?>
<svg
   xmlns:dc="http://purl.org/dc/elements/1.1/"
   xmlns:cc="http://creativecommons.org/ns#"
   xmlns:rdf="http://www.w3.org/1999/02/22-rdf-syntax-ns#"
   xmlns:svg="http://www.w3.org/2000/svg"
   xmlns="http://www.w3.org/2000/svg"
   xmlns:sodipodi="http://sodipodi.sourceforge.net/DTD/sodipodi-0.dtd"
   xmlns:inkscape="http://www.inkscape.org/namespaces/inkscape"
   aria-hidden="true"
   focusable="false"
   data-prefix="fas"
   data-icon="arrow-left"
   class="svg-inline--fa fa-arrow-left fa-w-14"
   role="img"
   viewBox="0 0 50 50"
   version="1.1"
   id="svg4"
   sodipodi:docname="arrow-left-solid.svg"
   width="50"
   height="50"
   inkscape:version="0.92.3 (2405546, 2018-03-11)">
  <metadata
     id="metadata10">
    <rdf:RDF>
      <cc:Work
         rdf:about="">
        <dc:format>image/svg+xml</dc:format>
        <dc:type
           rdf:resource="http://purl.org/dc/dcmitype/StillImage" />
        <dc:title></dc:title>
      </cc:Work>
    </rdf:RDF>
  </metadata>
  <defs
     id="defs8" />
  <sodipodi:namedview
     pagecolor="#ffffff"
     bordercolor="#666666"
     borderopacity="1"
     objecttolerance="10"
     gridtolerance="10"
     guidetolerance="10"
     inkscape:pageopacity="0"
     inkscape:pageshadow="2"
     inkscape:window-width="1416"
     inkscape:window-height="480"
     id="namedview6"
     showgrid="false"
     inkscape:zoom="0.4609375"
     inkscape:cx="-46.101695"
     inkscape:cy="256"
     inkscape:window-x="0"
     inkscape:window-y="0"
     inkscape:window-maximized="0"
     inkscape:current-layer="svg4" />
  <path
     d="m 28.741212,46.75 -2.477402,2.5 c -1.04899,1 -2.745229,1 -3.78306,0 L 0.78674255,27.55 c -1.04899007,-1.1 -1.04899007,-2.8 0,-3.8 L 22.48075,2.05 c 1.04899,-1 2.745229,-1 3.78306,0 l 2.477402,2.5 c 1.060149,1 1.037831,2.8 -0.04464,3.8 l -13.44716,12.8 h 32.072313 c 1.48421,0 2.678273,1.2 2.678273,2.7 v 3.6 c 0,1.5 -1.194063,2.6 -2.678273,2.6 H 15.249414 l 13.44716,12.9 c 1.093628,1 1.115947,2.7 0.04464,3.8 z"
     id="path2"
     inkscape:connector-curvature="0"
     style="fill:currentColor;stroke-width:0.11159468" />
</svg>
