<?xml version="1.0" encoding="UTF-8" standalone="no"?>
<svg
   xmlns:dc="http://purl.org/dc/elements/1.1/"
   xmlns:cc="http://creativecommons.org/ns#"
   xmlns:rdf="http://www.w3.org/1999/02/22-rdf-syntax-ns#"
   xmlns:svg="http://www.w3.org/2000/svg"
   xmlns="http://www.w3.org/2000/svg"
   xmlns:sodipodi="http://sodipodi.sourceforge.net/DTD/sodipodi-0.dtd"
   xmlns:inkscape="http://www.inkscape.org/namespaces/inkscape"
   aria-hidden="true"
   focusable="false"
   data-prefix="fas"
   data-icon="hands-helping"
   class="svg-inline--fa fa-hands-helping fa-w-20"
   role="img"
   viewBox="0 0 50 39.997002"
   version="1.1"
   id="svg4"
   sodipodi:docname="hands-helping-solid.svg"
   inkscape:version="1.0.1 (3bc2e813f5, 2020-09-07)"
   width="50"
   height="39.997002">
  <style
     id="style830"></style>
  <metadata
     id="metadata10">
    <rdf:RDF>
      <cc:Work
         rdf:about="">
        <dc:format>image/svg+xml</dc:format>
        <dc:type
           rdf:resource="http://purl.org/dc/dcmitype/StillImage" />
        <dc:title></dc:title>
      </cc:Work>
    </rdf:RDF>
  </metadata>
  <defs
     id="defs8" />
  <sodipodi:namedview
     pagecolor="#ffffff"
     bordercolor="#666666"
     borderopacity="1"
     objecttolerance="10"
     gridtolerance="10"
     guidetolerance="10"
     inkscape:pageopacity="0"
     inkscape:pageshadow="2"
     inkscape:window-width="1397"
     inkscape:window-height="692"
     id="namedview6"
     showgrid="false"
     inkscape:zoom="2.5642951"
     inkscape:cx="-6.796529"
     inkscape:cy="85.247238"
     inkscape:window-x="134"
     inkscape:window-y="93"
     inkscape:window-maximized="0"
     inkscape:current-layer="svg4"
     inkscape:document-rotation="0" />
  <path
     d="M 38.103904,14.9771 H 26.228926 v 4.375 c 0,3.10155 -2.523433,5.62499 -5.62499,5.62499 -3.101557,0 -5.62499,-2.52344 -5.62499,-5.62499 V 9.85211 l -5.0703028,3.04687 c -1.5078097,0.89844 -2.429683,2.53125 -2.429683,4.28124 v 3.69531 L 1.2289717,24.4849 c -1.19531035,0.6875 -1.60937208,2.21874 -0.91406086,3.41406 l 6.24998856,10.8281 c 0.6874987,1.19531 2.2187459,1.60156 3.4140562,0.91406 l 8.0781104,-4.66405 h 10.671855 c 2.757808,0 4.999991,-2.24219 4.999991,-4.99999 h 1.249998 c 1.38281,0 2.499995,-1.11719 2.499995,-2.5 v -4.99999 h 0.624999 c 1.03906,0 1.874996,-0.83594 1.874996,-1.875 V 16.8521 c 0,-1.03906 -0.835936,-1.875 -1.874996,-1.875 z M 49.642945,12.05523 43.392957,1.22713 C 42.705458,0.03182 41.174211,-0.37443 39.9789,0.31307 l -8.07811,4.66405 h -7.98436 c -0.937498,0 -1.851559,0.26563 -2.648433,0.75781 l -2.617182,1.63281 c -0.734374,0.45313 -1.171873,1.25781 -1.171873,2.11719 v 9.86717 c 0,1.72656 1.398435,3.12499 3.124994,3.12499 1.726559,0 3.124994,-1.39843 3.124994,-3.12499 v -6.87499 h 14.374974 c 2.414058,0 4.374992,1.96093 4.374992,4.37499 v 2.22656 l 6.249988,-3.60937 c 1.195311,-0.69531 1.60156,-2.21875 0.914061,-3.41406 z"
     id="path2"
     style="fill:#ffffff;stroke-width:0.07812486"
     inkscape:connector-curvature="0" />
</svg>
