<?xml version="1.0" encoding="UTF-8" standalone="no"?>
<svg
   xmlns:dc="http://purl.org/dc/elements/1.1/"
   xmlns:cc="http://creativecommons.org/ns#"
   xmlns:rdf="http://www.w3.org/1999/02/22-rdf-syntax-ns#"
   xmlns:svg="http://www.w3.org/2000/svg"
   xmlns="http://www.w3.org/2000/svg"
   xmlns:sodipodi="http://sodipodi.sourceforge.net/DTD/sodipodi-0.dtd"
   xmlns:inkscape="http://www.inkscape.org/namespaces/inkscape"
   aria-hidden="true"
   focusable="false"
   data-prefix="fas"
   data-icon="hands-helping"
   class="svg-inline--fa fa-hands-helping fa-w-20"
   role="img"
   viewBox="0 0 55 43.995998"
   version="1.1"
   id="svg4"
   sodipodi:docname="hands-helping-solid.svg"
   inkscape:version="1.0.1 (3bc2e813f5, 2020-09-07)"
   width="55"
   height="43.995998">
  <style
     id="style830"></style>
  <metadata
     id="metadata10">
    <rdf:RDF>
      <cc:Work
         rdf:about="">
        <dc:format>image/svg+xml</dc:format>
        <dc:type
           rdf:resource="http://purl.org/dc/dcmitype/StillImage" />
        <dc:title></dc:title>
      </cc:Work>
    </rdf:RDF>
  </metadata>
  <defs
     id="defs8" />
  <sodipodi:namedview
     pagecolor="#ffffff"
     bordercolor="#666666"
     borderopacity="1"
     objecttolerance="10"
     gridtolerance="10"
     guidetolerance="10"
     inkscape:pageopacity="0"
     inkscape:pageshadow="2"
     inkscape:window-width="1600"
     inkscape:window-height="877"
     id="namedview6"
     showgrid="false"
     inkscape:zoom="2.4835022"
     inkscape:cx="-6.796529"
     inkscape:cy="85.247238"
     inkscape:window-x="-8"
     inkscape:window-y="-8"
     inkscape:window-maximized="1"
     inkscape:current-layer="svg4"
     inkscape:document-rotation="0" />
  <path
     d="M 41.916576,16.476928 H 28.854099 v 4.8125 c 0,3.411705 -2.775776,6.187489 -6.187488,6.187489 -3.411713,0 -6.18749,-2.775784 -6.18749,-6.187489 V 10.839439 l -5.577333,3.351556 C 9.2431977,15.17928 8.229137,16.97537 8.229137,18.90036 v 4.06484 l -6.8749873,3.970308 c -1.31484142,0.75625 -1.77030933,2.440614 -1.00546699,3.755466 l 6.87498739,11.91091 c 0.7562487,1.314841 2.4406206,1.761716 3.7554619,1.005466 l 8.885921,-5.130455 h 11.739041 c 3.033589,0 5.49999,-2.46641 5.49999,-5.49999 h 1.374998 c 1.521091,0 2.749995,-1.228908 2.749995,-2.75 v -5.499988 h 0.687499 c 1.142965,0 2.062494,-0.919534 2.062494,-2.0625 v -4.124989 c 0,-1.142966 -0.919529,-2.0625 -2.062494,-2.0625 z M 54.60952,13.26287 47.734534,1.3519608 C 46.978285,0.03711976 45.293913,-0.40975524 43.97907,0.34649476 L 35.09315,5.4769498 h -8.782796 c -1.031248,0 -2.036715,0.292193 -2.913277,0.833591 l -2.8789,1.796091 c -0.807811,0.498443 -1.28906,1.383591 -1.28906,2.3289082 v 10.853888 c 0,1.899216 1.538278,3.437489 3.437494,3.437489 1.899214,0 3.437493,-1.538273 3.437493,-3.437489 v -7.562489 h 15.812472 c 2.655463,0 4.81249,2.157023 4.81249,4.812489 v 2.449216 l 6.874987,-3.970307 c 1.314842,-0.764842 1.761716,-2.440625 1.005467,-3.755467 z"
     id="path2"
     style="fill:#ffffff;stroke-width:0.0859373"
     inkscape:connector-curvature="0" />
</svg>
