<?xml version="1.0" encoding="UTF-8" standalone="no"?>
<svg
   xmlns:dc="http://purl.org/dc/elements/1.1/"
   xmlns:cc="http://creativecommons.org/ns#"
   xmlns:rdf="http://www.w3.org/1999/02/22-rdf-syntax-ns#"
   xmlns:svg="http://www.w3.org/2000/svg"
   xmlns="http://www.w3.org/2000/svg"
   xmlns:sodipodi="http://sodipodi.sourceforge.net/DTD/sodipodi-0.dtd"
   xmlns:inkscape="http://www.inkscape.org/namespaces/inkscape"
   aria-hidden="true"
   focusable="false"
   data-prefix="far"
   data-icon="hand-pointer"
   class="svg-inline--fa fa-hand-pointer fa-w-14"
   role="img"
   viewBox="0 0 20 22.857001"
   version="1.1"
   id="svg4"
   sodipodi:docname="hand-pointer-regular.svg"
   width="20"
   height="22.857"
   inkscape:version="1.0.1 (3bc2e813f5, 2020-09-07)">
  <style
     id="style835"></style>
  <metadata
     id="metadata10">
    <rdf:RDF>
      <cc:Work
         rdf:about="">
        <dc:format>image/svg+xml</dc:format>
        <dc:type
           rdf:resource="http://purl.org/dc/dcmitype/StillImage" />
        <dc:title></dc:title>
      </cc:Work>
    </rdf:RDF>
  </metadata>
  <defs
     id="defs8" />
  <sodipodi:namedview
     pagecolor="#ffffff"
     bordercolor="#666666"
     borderopacity="1"
     objecttolerance="10"
     gridtolerance="10"
     guidetolerance="10"
     inkscape:pageopacity="0"
     inkscape:pageshadow="2"
     inkscape:window-width="1600"
     inkscape:window-height="877"
     id="namedview6"
     showgrid="false"
     inkscape:zoom="7.7062342"
     inkscape:cx="48.471491"
     inkscape:cy="41.377264"
     inkscape:window-x="-8"
     inkscape:window-y="-8"
     inkscape:window-maximized="1"
     inkscape:current-layer="svg4" />
  <path
     fill="currentColor"
     d="M 15.990095,8.0071881 C 15.119872,6.9014737 13.638354,6.5810718 12.42438,7.1545988 11.749068,6.4542862 10.809112,6.1507147 9.8978174,6.278304 V 2.9910716 C 9.8978174,1.3417858 8.5703171,0 6.9386204,0 5.306924,0 3.979424,1.3417858 3.979424,2.9910716 V 10.184331 C 3.0906293,9.8535275 2.0476381,9.9569205 1.2078613,10.580402 -0.10262985,11.553394 -0.39004058,13.407769 0.55830769,14.738975 L 5.4555848,21.61402 c 0.5545982,0.778392 1.4523216,1.243126 2.4013841,1.243126 h 7.9591961 c 1.37509,0 2.570269,-0.959822 2.882009,-2.312368 l 1.22451,-5.312455 a 3.0300449,3.0300449 0 0 0 0.07713,-0.678751 v -3.75 c 0,-2.0912498 -2.081472,-3.5389733 -4.00973,-2.7963839 z M 3.6152276,12.486474 4.8262097,14.18643 c 0.4015625,0.563661 1.2960268,0.280669 1.2960268,-0.414421 V 2.9910716 c 0,-1.1214287 1.6326341,-1.1232143 1.6326341,0 v 7.8125004 c 0,0.394464 0.3197769,0.714286 0.7142858,0.714286 h 0.3061161 c 0.3945089,0 0.7142859,-0.319822 0.7142859,-0.714286 V 9.2410721 c 0,-1.1214289 1.6326336,-1.1232145 1.6326336,0 v 1.5624999 c 0,0.394464 0.319778,0.714286 0.714286,0.714286 h 0.306206 c 0.394508,0 0.714285,-0.319822 0.714285,-0.714286 V 9.8660721 c 0,-1.1214288 1.632634,-1.1232144 1.632634,0 v 0.9374999 c 0,0.394464 0.319777,0.714286 0.714286,0.714286 h 0.306116 c 0.39451,0 0.714286,-0.319822 0.714286,-0.714286 0,-1.1214731 1.632634,-1.1232141 1.632634,0 v 3.75 c 0,0.06643 -0.0075,0.132907 -0.02241,0.197456 l -1.224552,5.312545 c -0.08829,0.383125 -0.414732,0.650714 -0.79384,0.650714 H 7.8569689 c -0.2575448,0 -0.5028125,-0.12848 -0.6561162,-0.343616 L 2.3029952,13.49567 C 1.6598703,12.592858 2.9723703,11.584152 3.6152276,12.486474 Z m 4.2481253,5.370671 v -4.285716 c 0,-0.394509 0.2798216,-0.714285 0.6249998,-0.714285 h 0.2678572 c 0.3451788,0 0.6250001,0.319776 0.6250001,0.714285 v 4.285716 c 0,0.394508 -0.2798213,0.714284 -0.6250001,0.714284 H 8.4883527 c -0.345223,0 -0.6249998,-0.319776 -0.6249998,-0.714284 z m 3.3673211,0 v -4.285716 c 0,-0.394509 0.279822,-0.714285 0.625,-0.714285 h 0.267858 c 0.345178,0 0.625,0.319776 0.625,0.714285 v 4.285716 c 0,0.394508 -0.279822,0.714284 -0.625,0.714284 h -0.267858 c -0.345178,0 -0.625,-0.319776 -0.625,-0.714284 z m 3.367367,0 v -4.285716 c 0,-0.394509 0.279821,-0.714285 0.625,-0.714285 h 0.267857 c 0.345178,0 0.624999,0.319776 0.624999,0.714285 v 4.285716 c 0,0.394508 -0.279821,0.714284 -0.624999,0.714284 h -0.267857 c -0.345179,0 -0.625,-0.319776 -0.625,-0.714284 z"
     id="path2"
     style="stroke-width:0.0446427" />
  <path
     style="fill:#ffffff;stroke:#9356dc;stroke-width:0;stroke-linecap:round;stroke-linejoin:round"
     d="M 7.3098573,20.387764 C 6.8258245,19.827232 2.2911793,13.343481 2.214736,13.102629 c -0.060569,-0.190837 0.00971,-0.36456 0.2410818,-0.595932 0.5758724,-0.575873 0.8167678,-0.433642 1.9272848,1.137917 0.5140254,0.727428 0.6767477,0.871281 0.9855674,0.871281 0.8129899,0 0.7994095,0.104334 0.7994095,-6.1416174 0,-5.4939838 0.00792,-5.6749276 0.2595301,-5.926534 0.1427416,-0.1427416 0.3763187,-0.2595301 0.5190603,-0.2595301 0.1427416,0 0.3763187,0.1167885 0.5190603,0.2595301 0.2488593,0.2488593 0.2595301,0.4325502 0.2595301,4.4676258 0,4.7043756 -0.017197,4.6159286 0.8975124,4.6159286 0.7513132,0 0.9191985,-0.275819 0.9191985,-1.510155 0,-1.0963522 0.1161124,-1.3863911 0.6142238,-1.5342795 0.211383,-0.062759 0.378187,0.00233 0.616384,0.2405286 0.294315,0.2943146 0.326573,0.4287844 0.326573,1.3613229 0,1.206775 0.146709,1.442583 0.897512,1.442583 0.692258,0 0.919199,-0.298871 0.919199,-1.210544 0,-0.7883709 0.280268,-1.254992 0.753788,-1.254992 0.512376,0 0.704625,0.3110242 0.793834,1.284279 0.09538,1.040555 0.202355,1.17617 0.930243,1.17927 0.513941,0.0022 0.896027,-0.308919 0.896027,-0.729578 0,-0.336852 0.253343,-0.648544 0.614223,-0.755689 0.211384,-0.062759 0.378188,0.0023 0.616384,0.240529 0.31905,0.319049 0.326574,0.370154 0.326574,2.218109 0,1.809057 -0.02875,2.017255 -0.659343,4.774764 -0.362964,1.587198 -0.751151,2.985308 -0.863585,3.110318 -0.186725,0.207611 -0.573649,0.227089 -4.511148,0.227089 -3.9406016,0 -4.323584,-0.01931 -4.5030027,-0.227089 z m 1.8139452,-1.921392 c 0.280829,-0.196701 0.2884037,-0.266792 0.2884037,-2.668716 0,-1.452209 -0.055247,-2.569939 -0.1343307,-2.717708 -0.1551775,-0.289952 -1.0083106,-0.354102 -1.2671321,-0.09528 -0.1104509,0.110451 -0.155718,0.890225 -0.155718,2.682408 0,2.169008 0.030402,2.560282 0.2147596,2.763995 0.2629622,0.29057 0.670102,0.304206 1.0540175,0.0353 z m 3.3738915,0 c 0.281151,-0.196927 0.288404,-0.265221 0.288404,-2.715799 0,-2.112244 -0.03257,-2.546364 -0.203917,-2.717707 -0.240737,-0.240738 -0.975437,-0.270308 -1.197546,-0.0482 -0.110451,0.110451 -0.155718,0.890225 -0.155718,2.682408 0,2.169008 0.0304,2.560282 0.21476,2.763995 0.262962,0.29057 0.670102,0.304206 1.054017,0.0353 z m 3.373892,0 c 0.281151,-0.196927 0.288404,-0.265221 0.288404,-2.715799 0,-2.112244 -0.03257,-2.546364 -0.203917,-2.717707 -0.240738,-0.240738 -0.975438,-0.270308 -1.197546,-0.0482 -0.110451,0.110451 -0.155718,0.890225 -0.155718,2.682408 0,2.169008 0.0304,2.560282 0.21476,2.763995 0.262962,0.29057 0.670101,0.304206 1.054017,0.0353 z"
     id="path837" />
  <path
     style="fill:#ffffff;stroke:#9356dc;stroke-width:0;stroke-linecap:round;stroke-linejoin:round"
     d="m 7.306072,20.387764 c -0.4569697,-0.51917 -5.00785,-7.022094 -5.0855668,-7.266958 -0.05749,-0.181135 0.013685,-0.380653 0.222321,-0.623207 0.4819598,-0.560312 0.8475784,-0.378897 1.7138947,0.85041 0.7188375,1.020034 1.1021987,1.295552 1.5588382,1.120323 0.1082869,-0.04155 0.2544031,-0.226835 0.3247028,-0.411737 0.076624,-0.201536 0.1278176,-2.541692 0.1278176,-5.8427536 0,-5.3335476 0.00815,-5.5147223 0.2595301,-5.7660978 0.1427416,-0.1427416 0.3763187,-0.2595301 0.5190603,-0.2595301 0.1427416,0 0.3763187,0.1167885 0.5190603,0.2595301 0.2486406,0.2486407 0.2595301,0.4325502 0.2595301,4.3831388 0,4.6865216 0.00269,4.7004156 0.9083555,4.7004156 0.7250536,0 0.9083554,-0.320058 0.9083554,-1.586054 0,-0.836227 0.044493,-1.0537396 0.2595302,-1.2687772 0.3424776,-0.3424775 0.5927516,-0.3274007 0.9791366,0.058984 0.284353,0.284353 0.318514,0.4283302 0.318514,1.3424212 0,1.186369 0.173391,1.453426 0.943656,1.453426 0.623188,0 0.873055,-0.361079 0.873055,-1.261641 0,-1.0090847 0.586221,-1.4980608 1.230866,-1.026685 0.179681,0.1313862 0.257045,0.3914395 0.29918,1.005679 0.06851,0.998776 0.275553,1.282647 0.93549,1.282647 0.537004,0 0.908356,-0.309215 0.908356,-0.756367 0,-0.3261 0.426574,-0.8008136 0.719605,-0.8008136 0.110301,0 0.343878,0.1433316 0.519061,0.3185146 0.309235,0.309234 0.318515,0.373991 0.318515,2.222715 0,1.823765 -0.02775,2.025401 -0.656875,4.773442 -0.367774,1.606436 -0.747853,2.969769 -0.863585,3.097653 -0.189413,0.209298 -0.567101,0.228411 -4.513616,0.228411 -3.9391595,0 -4.3239729,-0.01939 -4.506788,-0.227089 z m 1.846604,-1.978917 c 0.2412487,-0.241249 0.2595302,-0.43255 0.2595302,-2.715797 0,-2.739916 -0.036776,-2.864101 -0.8481763,-2.864101 -0.3025456,0 -0.4823796,0.07855 -0.5746738,0.250999 -0.079084,0.147769 -0.1343307,1.265499 -0.1343307,2.717708 0,2.401924 0.00757,2.472015 0.2884036,2.668716 0.3881639,0.27188 0.6974718,0.25425 1.009247,-0.05752 z m 3.373892,0 c 0.240997,-0.240997 0.25953,-0.43255 0.25953,-2.682408 0,-2.07241 -0.03107,-2.457203 -0.21476,-2.660183 -0.294095,-0.324972 -1.031315,-0.316616 -1.20809,0.01369 -0.07908,0.147769 -0.134331,1.265499 -0.134331,2.717708 0,2.401924 0.0076,2.472015 0.288404,2.668716 0.388164,0.27188 0.697472,0.25425 1.009247,-0.05752 z m 3.373892,0 c 0.240997,-0.240997 0.25953,-0.43255 0.25953,-2.682408 0,-2.701049 -0.05679,-2.89749 -0.837633,-2.89749 -0.698448,0 -0.719548,0.08426 -0.719548,2.873427 0,2.500383 0.0069,2.566846 0.288404,2.763996 0.388164,0.27188 0.697472,0.25425 1.009247,-0.05752 z"
     id="path841" />
  <path
     style="fill:#ffffff;stroke:#9356dc;stroke-width:0;stroke-linecap:round;stroke-linejoin:round"
     d="M 7.1074227,20.128234 C 6.2807968,19.069999 2.2324469,13.277711 2.1804326,13.078808 c -0.030459,-0.116476 0.085168,-0.375172 0.2569486,-0.574879 0.4877117,-0.566998 0.8524888,-0.388893 1.738729,0.848947 0.7263867,1.014567 1.0989244,1.284502 1.5394489,1.115456 0.1082869,-0.04155 0.2544031,-0.226835 0.3247028,-0.411737 0.076624,-0.201536 0.1278176,-2.541692 0.1278176,-5.8427536 0,-5.3335476 0.00815,-5.5147223 0.2595301,-5.7660978 0.1427416,-0.1427416 0.3763187,-0.2595301 0.5190603,-0.2595301 0.1427416,0 0.3763187,0.1167885 0.5190603,0.2595301 0.2483699,0.24837 0.2596124,0.4339078 0.2614431,4.3146885 0.00219,4.6334669 0.010796,4.6806929 0.8648683,4.7432919 0.7621234,0.05586 0.9499296,-0.252656 0.9499296,-1.56048 0,-0.836227 0.044493,-1.0537396 0.2595302,-1.2687772 0.3424776,-0.3424775 0.5927516,-0.3274007 0.9791366,0.058984 0.280182,0.2801818 0.318514,0.4328761 0.318514,1.2687772 0,1.202558 0.193032,1.52707 0.908356,1.52707 0.661459,0 0.908355,-0.342921 0.908355,-1.261641 0,-1.0027343 0.586154,-1.4981097 1.222267,-1.0329727 0.16402,0.1199344 0.260109,0.4255858 0.32211,1.0246067 0.102222,0.98762 0.283619,1.270007 0.815815,1.270007 0.585106,0 0.86172,-0.21418 1.015847,-0.786566 0.181078,-0.672473 0.613797,-0.9070332 1.09348,-0.592733 0.4525,0.29649 0.492752,0.560284 0.431853,2.830186 -0.04879,1.818431 -0.105803,2.209025 -0.668857,4.582048 -0.338538,1.426789 -0.708468,2.696865 -0.822067,2.822391 -0.189217,0.209081 -0.568661,0.228229 -4.522659,0.228229 H 7.4875384 Z M 9.152676,18.408847 c 0.2405976,-0.240598 0.2595302,-0.43255 0.2595302,-2.63131 0,-2.646904 -0.079466,-2.948588 -0.7766796,-2.948588 -0.7363561,0 -0.7805012,0.161994 -0.7805012,2.864101 0,2.283247 0.018281,2.474548 0.2595301,2.715797 0.1427416,0.142741 0.3763187,0.25953 0.5190603,0.25953 0.1427415,0 0.3763187,-0.116789 0.5190602,-0.25953 z m 3.373892,0 c 0.240597,-0.240598 0.25953,-0.43255 0.25953,-2.63131 0,-2.646904 -0.07947,-2.948588 -0.77668,-2.948588 -0.736356,0 -0.780501,0.161994 -0.780501,2.864101 0,2.283247 0.01828,2.474548 0.25953,2.715797 0.142742,0.142741 0.376319,0.25953 0.519061,0.25953 0.142741,0 0.376318,-0.116789 0.51906,-0.25953 z m 3.373892,0 c 0.240597,-0.240598 0.25953,-0.43255 0.25953,-2.63131 0,-2.706292 -0.06954,-2.948588 -0.846266,-2.948588 -0.304435,0 -0.484115,0.07822 -0.576584,0.250999 -0.07876,0.147166 -0.134331,1.247628 -0.134331,2.660184 0,2.236165 0.01864,2.427823 0.25953,2.668715 0.142742,0.142741 0.376319,0.25953 0.51906,0.25953 0.142742,0 0.376319,-0.116789 0.519061,-0.25953 z"
     id="path843" />
  <path
     style="fill:#ffffff;stroke:#9356dc;stroke-width:0;stroke-linecap:round;stroke-linejoin:round"
     d="m 6.9125196,19.868704 c -1.1128508,-1.460913 -4.673725,-6.56672 -4.7301079,-6.782328 -0.031548,-0.120639 0.083189,-0.38274 0.2549695,-0.582447 0.446013,-0.518521 0.838712,-0.376955 1.5266011,0.550331 0.8256473,1.112987 1.1831552,1.461635 1.4987781,1.461635 0.631094,0 0.6361064,-0.04402 0.7053191,-6.1942026 0.06209,-5.5172813 0.075723,-5.7733268 0.3167734,-5.9494427 0.3194497,-0.2333961 0.6041281,-0.233418 0.923634,-7.12e-5 0.2381234,0.1739102 0.2554371,0.4175247 0.3167734,4.4571963 0.071048,4.6793042 0.075063,4.7019232 0.83456,4.7019232 0.7558748,0 0.8950254,-0.221456 0.9752966,-1.5521685 C 9.5942455,8.9989111 9.6522226,8.7521363 9.8588892,8.601018 10.2143,8.3411355 10.415695,8.370508 10.780638,8.7354509 c 0.280182,0.2801818 0.318514,0.4328761 0.318514,1.2687771 0,1.154715 0.201416,1.52707 0.826029,1.52707 0.685326,0 0.878592,-0.236282 0.977878,-1.195528 0.09697,-0.9369064 0.285187,-1.270008 0.717599,-1.270008 0.534503,0 0.734897,0.2854099 0.84956,1.209981 0.126072,1.016572 0.279455,1.255555 0.805837,1.255555 0.585106,0 0.86172,-0.21418 1.015847,-0.786566 0.181078,-0.672473 0.613797,-0.9070331 1.09348,-0.592733 0.452114,0.296237 0.492445,0.559109 0.434226,2.830186 -0.04687,1.828537 -0.100616,2.195928 -0.67041,4.583189 -0.340698,1.427416 -0.711698,2.697491 -0.824442,2.82239 -0.187417,0.207622 -0.575279,0.227089 -4.524424,0.227089 H 7.4808989 Z m 2.1829132,-1.384272 c 0.2311112,-0.168769 0.2547611,-0.380193 0.2866838,-2.56286 0.039159,-2.677443 -0.034177,-3.004459 -0.6865775,-3.061547 -0.7577589,-0.06631 -0.7718674,-0.01881 -0.8157103,2.746292 -0.038166,2.407042 -0.027324,2.54048 0.2270889,2.794892 0.3126703,0.31267 0.6369305,0.33997 0.9885151,0.08322 z m 3.3662522,-0.02017 c 0.24041,-0.181433 0.262094,-0.369944 0.294323,-2.558734 0.03917,-2.660259 -0.03482,-2.988471 -0.686577,-3.045503 -0.757759,-0.06631 -0.771868,-0.01881 -0.81571,2.746292 -0.03817,2.407042 -0.02732,2.54048 0.227088,2.794892 0.314257,0.314256 0.621817,0.334027 0.980876,0.06305 z m 3.373892,0 c 0.240409,-0.181433 0.262093,-0.369944 0.294323,-2.558734 0.03917,-2.660259 -0.03482,-2.988471 -0.686577,-3.045503 -0.757759,-0.06631 -0.771868,-0.01881 -0.815711,2.746292 -0.03816,2.407042 -0.02732,2.54048 0.227089,2.794892 0.314256,0.314256 0.621816,0.334027 0.980876,0.06305 z"
     id="path845" />
</svg>
