<?xml version="1.0" encoding="UTF-8" standalone="no"?>
<svg
   xmlns:dc="http://purl.org/dc/elements/1.1/"
   xmlns:cc="http://creativecommons.org/ns#"
   xmlns:rdf="http://www.w3.org/1999/02/22-rdf-syntax-ns#"
   xmlns:svg="http://www.w3.org/2000/svg"
   xmlns="http://www.w3.org/2000/svg"
   xmlns:sodipodi="http://sodipodi.sourceforge.net/DTD/sodipodi-0.dtd"
   xmlns:inkscape="http://www.inkscape.org/namespaces/inkscape"
   aria-hidden="true"
   focusable="false"
   data-prefix="far"
   data-icon="heart"
   class="svg-inline--fa fa-heart fa-w-16"
   role="img"
   viewBox="0 0 512 448.62"
   version="1.1"
   id="svg4"
   sodipodi:docname="heart-regular.svg"
   width="512"
   height="448.62"
   inkscape:version="1.0.1 (3bc2e813f5, 2020-09-07)">
  <style
     id="style835"></style>
  <metadata
     id="metadata10">
    <rdf:RDF>
      <cc:Work
         rdf:about="">
        <dc:format>image/svg+xml</dc:format>
        <dc:type
           rdf:resource="http://purl.org/dc/dcmitype/StillImage" />
        <dc:title></dc:title>
      </cc:Work>
    </rdf:RDF>
  </metadata>
  <defs
     id="defs8" />
  <sodipodi:namedview
     pagecolor="#ffffff"
     bordercolor="#666666"
     borderopacity="1"
     objecttolerance="10"
     gridtolerance="10"
     guidetolerance="10"
     inkscape:pageopacity="0"
     inkscape:pageshadow="2"
     inkscape:window-width="1600"
     inkscape:window-height="877"
     id="namedview6"
     showgrid="false"
     inkscape:zoom="1.3430276"
     inkscape:cx="256"
     inkscape:cy="256"
     inkscape:window-x="-8"
     inkscape:window-y="-8"
     inkscape:window-maximized="1"
     inkscape:current-layer="svg4" />
  <path
     fill="currentColor"
     d="M 458.4,32.35784 C 400.6,-16.296179 311.3,-8.9880655 256,47.374512 200.7,-8.9880655 111.4,-16.39629 53.6,32.35784 -21.6,95.728194 -10.6,199.0429 43,253.8037 l 175.4,178.89862 c 10,10.21134 23.4,15.91768 37.6,15.91768 14.3,0 27.6,-5.60623 37.6,-15.81757 L 469,253.90381 C 522.5,199.14301 533.7,95.828304 458.4,32.35784 Z m -23.6,187.7084 -175.4,178.89863 c -2.4,2.40266 -4.4,2.40266 -6.8,0 L 77.2,220.06624 C 40.7,182.82489 33.3,112.34664 84.5,69.198744 123.4,36.462397 183.4,41.367843 221,79.710414 l 35,35.739676 35,-35.739676 c 37.8,-38.542793 97.8,-43.248017 136.5,-10.61178 51.1,43.147896 43.5,114.026596 7.3,150.967606 z"
     id="path2"
     style="stroke-width:1.00056" />
</svg>
