<?xml version="1.0" encoding="UTF-8" standalone="no"?>
<svg
   xmlns:dc="http://purl.org/dc/elements/1.1/"
   xmlns:cc="http://creativecommons.org/ns#"
   xmlns:rdf="http://www.w3.org/1999/02/22-rdf-syntax-ns#"
   xmlns:svg="http://www.w3.org/2000/svg"
   xmlns="http://www.w3.org/2000/svg"
   xmlns:sodipodi="http://sodipodi.sourceforge.net/DTD/sodipodi-0.dtd"
   xmlns:inkscape="http://www.inkscape.org/namespaces/inkscape"
   aria-hidden="true"
   focusable="false"
   data-prefix="fas"
   data-icon="list-ul"
   class="svg-inline--fa fa-list-ul fa-w-16"
   role="img"
   viewBox="0 0 512 512"
   version="1.1"
   id="svg4"
   sodipodi:docname="list-ul-solid.svg"
   inkscape:version="0.92.3 (2405546, 2018-03-11)">
  <metadata
     id="metadata10">
    <rdf:RDF>
      <cc:Work
         rdf:about="">
        <dc:format>image/svg+xml</dc:format>
        <dc:type
           rdf:resource="http://purl.org/dc/dcmitype/StillImage" />
        <dc:title></dc:title>
      </cc:Work>
    </rdf:RDF>
  </metadata>
  <defs
     id="defs8" />
  <sodipodi:namedview
     pagecolor="#ffffff"
     bordercolor="#666666"
     borderopacity="1"
     objecttolerance="10"
     gridtolerance="10"
     guidetolerance="10"
     inkscape:pageopacity="0"
     inkscape:pageshadow="2"
     inkscape:window-width="1552"
     inkscape:window-height="652"
     id="namedview6"
     showgrid="false"
     inkscape:zoom="0.4609375"
     inkscape:cx="-14.101695"
     inkscape:cy="256"
     inkscape:window-x="0"
     inkscape:window-y="0"
     inkscape:window-maximized="0"
     inkscape:current-layer="svg4" />
  <path
     style="fill:currentColor"
     d="M 44.923828,56.007812 C 19.506569,57.171516 0.33109067,86.898122 10.5625,110.45117 18.914342,133.0595 49.915584,143.94074 69.90625,129.63086 88.577266,117.52605 94.494373,88.48271 79.314453,71.125 71.130837,60.937242 57.978802,55.111207 44.923828,56.007812 Z M 469.50977,71.939453 c -98.81945,0.481356 -197.71944,-0.683649 -296.48829,0.613281 -8.16014,4.657484 -4.38822,15.131725 -4.79882,22.716797 0.0884,7.552799 -2.71576,17.231849 3.33984,23.023439 9.68827,4.25555 20.46612,0.30732 30.63866,1.68933 98.96356,-0.33747 198.0219,0.80576 296.92579,-0.61707 7.79249,-4.52152 4.34747,-14.7023 4.64455,-21.882686 -0.1864,-7.95586 2.90976,-18.208968 -3.66408,-24.254028 -9.73399,-2.94349 -20.55283,-0.610203 -30.59765,-1.289063 z M 44.923828,216.00781 C 19.506569,217.17152 0.33109067,246.89812 10.5625,270.45117 18.914342,293.0595 49.915584,303.94074 69.90625,289.63086 88.577266,277.52605 94.494373,248.48271 79.314453,231.125 71.130837,220.93724 57.978802,215.11121 44.923828,216.00781 Z m 424.585942,15.93164 c -98.81945,0.48136 -197.71944,-0.68365 -296.48829,0.61328 -8.1581,4.65694 -4.39148,15.13033 -4.79687,22.71485 0.0859,7.55045 -2.71112,17.22031 3.33789,23.02539 9.68827,4.25555 20.46612,0.30732 30.63866,1.68933 98.96356,-0.33747 198.0219,0.80576 296.92579,-0.61707 7.79273,-4.52221 4.34781,-14.7035 4.64371,-21.88462 -0.18584,-7.95442 2.91525,-18.214 -3.66324,-24.25209 -9.73399,-2.94349 -20.55283,-0.61021 -30.59765,-1.28907 z M 44.923828,376.00781 C 19.506569,377.17152 0.33109067,406.89812 10.5625,430.45117 18.914342,453.0595 49.915584,463.94074 69.90625,449.63086 88.577266,437.52605 94.494373,408.48271 79.314453,391.125 71.130837,380.93724 57.978802,375.11121 44.923828,376.00781 Z m 424.585942,15.93164 c -98.81945,0.48136 -197.71944,-0.68365 -296.48829,0.61328 -8.1581,4.65694 -4.39148,15.13033 -4.79687,22.71485 0.0859,7.55045 -2.71112,17.22031 3.33789,23.02539 9.68827,4.25555 20.46612,0.30732 30.63866,1.68933 98.96356,-0.33747 198.0219,0.80576 296.92579,-0.61707 7.79273,-4.52221 4.34781,-14.7035 4.64371,-21.88462 -0.18584,-7.95442 2.91525,-18.214 -3.66324,-24.25209 -9.73399,-2.94349 -20.55283,-0.61021 -30.59765,-1.28907 z"
     id="path2"
     inkscape:connector-curvature="0" />
</svg>
