<?xml version="1.0" encoding="UTF-8" standalone="no"?>
<svg
   xmlns:dc="http://purl.org/dc/elements/1.1/"
   xmlns:cc="http://creativecommons.org/ns#"
   xmlns:rdf="http://www.w3.org/1999/02/22-rdf-syntax-ns#"
   xmlns:svg="http://www.w3.org/2000/svg"
   xmlns="http://www.w3.org/2000/svg"
   xmlns:sodipodi="http://sodipodi.sourceforge.net/DTD/sodipodi-0.dtd"
   xmlns:inkscape="http://www.inkscape.org/namespaces/inkscape"
   aria-hidden="true"
   focusable="false"
   data-prefix="fas"
   data-icon="list-ul"
   class="svg-inline--fa fa-list-ul fa-w-16"
   role="img"
   viewBox="0 0 75 60"
   version="1.1"
   id="svg4"
   sodipodi:docname="list-ul-solid.svg"
   inkscape:version="1.0.1 (3bc2e813f5, 2020-09-07)"
   width="75"
   height="60">
  <metadata
     id="metadata10">
    <rdf:RDF>
      <cc:Work
         rdf:about="">
        <dc:format>image/svg+xml</dc:format>
        <dc:type
           rdf:resource="http://purl.org/dc/dcmitype/StillImage" />
        <dc:title></dc:title>
      </cc:Work>
    </rdf:RDF>
  </metadata>
  <defs
     id="defs8" />
  <sodipodi:namedview
     pagecolor="#ffffff"
     bordercolor="#666666"
     borderopacity="1"
     objecttolerance="10"
     gridtolerance="10"
     guidetolerance="10"
     inkscape:pageopacity="0"
     inkscape:pageshadow="2"
     inkscape:window-width="1600"
     inkscape:window-height="877"
     id="namedview6"
     showgrid="false"
     inkscape:zoom="4.6265361"
     inkscape:cx="27.718842"
     inkscape:cy="54.084976"
     inkscape:window-x="-8"
     inkscape:window-y="-8"
     inkscape:window-maximized="1"
     inkscape:current-layer="svg4"
     inkscape:document-rotation="0" />
  <path
     style="fill:currentColor;stroke-width:0.150485"
     d="M 5.6134959,0.01334918 C 1.774687,0.18783389 -1.1214153,4.6450348 0.42385043,8.1765744 1.685242,11.566466 6.3674078,13.198003 9.38663,11.052378 12.206541,9.2373916 13.10021,4.88263 10.807565,2.2800125 9.5715801,0.75246329 7.585208,-0.12109207 5.6134959,0.01334918 Z M 69.739374,2.4021385 c -14.924857,0.072225 -29.861877,-0.1024538 -44.779089,0.091882 -1.23244,0.6983409 -0.66276,2.2688523 -0.724774,3.4061526 0.01335,1.1324604 -0.410166,2.5837348 0.504423,3.4521376 1.463232,0.6380748 3.091028,0.046016 4.627403,0.2532912 14.94662,-0.050631 29.907558,0.1207706 44.845164,-0.092476 C 75.389413,8.8351708 74.869107,7.308664 74.913975,6.2320323 74.885818,5.0391268 75.353441,3.501779 74.360583,2.5953875 72.890443,2.154045 71.256458,2.5039525 69.739374,2.4021091 Z M 5.6134959,24.003741 C 1.774687,24.178224 -1.1214153,28.635427 0.42385043,32.166981 1.685242,35.556871 6.3674078,37.188394 9.38663,35.042784 12.206541,33.227783 13.10021,28.87302 10.807565,26.270404 9.5715801,24.742855 7.585208,23.8693 5.6134959,24.003741 Z m 64.1258781,2.38879 c -14.924857,0.07223 -29.861877,-0.102458 -44.779089,0.09203 -1.23213,0.698266 -0.663253,2.268645 -0.72448,3.405869 0.0129,1.132103 -0.409464,2.582009 0.504129,3.452422 1.463232,0.638074 3.091028,0.04601 4.627403,0.253291 14.94662,-0.05063 29.907558,0.12077 44.845164,-0.09248 1.176948,-0.678056 0.656657,-2.20464 0.701347,-3.281376 -0.02806,-1.192682 0.440295,-2.731012 -0.553265,-3.636361 -1.47014,-0.441341 -3.104125,-0.09144 -4.621209,-0.193277 z M 5.6134959,47.994131 C 1.774687,48.168616 -1.1214153,52.625832 0.42385043,56.157371 1.685242,59.547263 6.3674078,61.1788 9.38663,59.033176 12.206541,57.218172 13.10021,52.863426 10.807565,50.26081 9.5715801,48.73326 7.585208,47.859705 5.6134959,47.994131 Z m 64.1258781,2.38879 c -14.924857,0.07223 -29.861877,-0.102458 -44.779089,0.09203 -1.23213,0.698264 -0.663253,2.268643 -0.72448,3.405866 0.0129,1.132121 -0.409464,2.582009 0.504129,3.452423 1.463232,0.638076 3.091028,0.04603 4.627403,0.253307 14.94662,-0.05063 29.907558,0.120769 44.845164,-0.09248 1.176948,-0.678059 0.656657,-2.204654 0.701347,-3.28139 -0.02806,-1.192684 0.440295,-2.731 -0.553265,-3.636346 -1.47014,-0.441359 -3.104125,-0.09144 -4.621209,-0.193295 z"
     id="path2"
     inkscape:connector-curvature="0" />
</svg>
