<?xml version="1.0" encoding="UTF-8" standalone="no"?>
<svg
   xmlns:dc="http://purl.org/dc/elements/1.1/"
   xmlns:cc="http://creativecommons.org/ns#"
   xmlns:rdf="http://www.w3.org/1999/02/22-rdf-syntax-ns#"
   xmlns:svg="http://www.w3.org/2000/svg"
   xmlns="http://www.w3.org/2000/svg"
   xmlns:sodipodi="http://sodipodi.sourceforge.net/DTD/sodipodi-0.dtd"
   xmlns:inkscape="http://www.inkscape.org/namespaces/inkscape"
   aria-hidden="true"
   focusable="false"
   data-prefix="fas"
   data-icon="list-ul"
   class="svg-inline--fa fa-list-ul fa-w-16"
   role="img"
   viewBox="0 0 50 40.291"
   version="1.1"
   id="svg4"
   sodipodi:docname="list-ul-solid.svg"
   inkscape:version="0.92.3 (2405546, 2018-03-11)"
   width="50"
   height="40.291">
  <metadata
     id="metadata10">
    <rdf:RDF>
      <cc:Work
         rdf:about="">
        <dc:format>image/svg+xml</dc:format>
        <dc:type
           rdf:resource="http://purl.org/dc/dcmitype/StillImage" />
        <dc:title></dc:title>
      </cc:Work>
    </rdf:RDF>
  </metadata>
  <defs
     id="defs8" />
  <sodipodi:namedview
     pagecolor="#ffffff"
     bordercolor="#666666"
     borderopacity="1"
     objecttolerance="10"
     gridtolerance="10"
     guidetolerance="10"
     inkscape:pageopacity="0"
     inkscape:pageshadow="2"
     inkscape:window-width="1552"
     inkscape:window-height="652"
     id="namedview6"
     showgrid="false"
     inkscape:zoom="0.4609375"
     inkscape:cx="-675.79661"
     inkscape:cy="256"
     inkscape:window-x="0"
     inkscape:window-y="0"
     inkscape:window-maximized="0"
     inkscape:current-layer="svg4" />
  <path
     style="fill:currentColor;stroke-width:0.10068771"
     d="m 3.7423306,0.00889657 c -2.5592059,0.11717 -4.48994085,3.11027003 -3.45976365,5.48177003 0.84092775,2.27638 3.96237165,3.37199 5.97518665,1.93116 1.879941,-1.2188 2.475721,-4.14311 0.94729,-5.89082 -0.82399,-1.02578003 -2.148238,-1.61239003 -3.462713,-1.52211003 z M 46.492917,1.6130166 c -9.949904,0.0485 -19.907918,-0.0688 -29.852727,0.0617 -0.821626,0.46895 -0.44184,1.52358 -0.483182,2.2873 0.0089,0.76047 -0.273444,1.73503 0.336281,2.31818 0.975489,0.42848 2.060686,0.0309 3.084936,0.17009 9.964414,-0.034 19.938372,0.0811 29.896778,-0.0621 0.784608,-0.45526 0.437737,-1.48034 0.467649,-2.20332 -0.01877,-0.80106 0.292977,-1.83342 -0.368928,-2.44208 -0.980093,-0.29637 -2.069417,-0.0614 -3.080807,-0.12979 z M 3.7423306,16.118927 c -2.5592059,0.11717 -4.48994085,3.11027 -3.45976365,5.48178 0.84092775,2.27638 3.96237165,3.37198 5.97518665,1.93116 1.879941,-1.21881 2.475721,-4.14312 0.94729,-5.89083 -0.82399,-1.02578 -2.148238,-1.61239 -3.462713,-1.52211 z m 42.7505864,1.60412 c -9.949904,0.0485 -19.907918,-0.0688 -29.852727,0.0618 -0.82142,0.4689 -0.442168,1.52344 -0.482986,2.28711 0.0086,0.76023 -0.272976,1.73387 0.336085,2.31837 0.975489,0.42848 2.060686,0.0309 3.084936,0.17009 9.964414,-0.034 19.938372,0.0811 29.896778,-0.0621 0.784632,-0.45533 0.437771,-1.48046 0.467564,-2.20351 -0.01871,-0.80091 0.29353,-1.83393 -0.368843,-2.44189 -0.980093,-0.29637 -2.069417,-0.0614 -3.080807,-0.12979 z M 3.7423306,32.228957 c -2.5592059,0.11717 -4.48994085,3.11028 -3.45976365,5.48178 0.84092775,2.27638 3.96237165,3.37199 5.97518665,1.93116 1.879941,-1.21881 2.475721,-4.14311 0.94729,-5.89082 -0.82399,-1.02578 -2.148238,-1.61239 -3.462713,-1.52212 z m 42.7505864,1.60412 c -9.949904,0.0485 -19.907918,-0.0688 -29.852727,0.0618 -0.82142,0.4689 -0.442168,1.52344 -0.482986,2.28711 0.0086,0.76024 -0.272976,1.73387 0.336085,2.31837 0.975489,0.42848 2.060686,0.0309 3.084936,0.1701 9.964414,-0.034 19.938372,0.0811 29.896778,-0.0621 0.784632,-0.45533 0.437771,-1.48047 0.467564,-2.20352 -0.01871,-0.80091 0.29353,-1.83392 -0.368843,-2.44188 -0.980093,-0.29638 -2.069417,-0.0614 -3.080807,-0.1298 z"
     id="path2"
     inkscape:connector-curvature="0" />
</svg>
