<?xml version="1.0" encoding="UTF-8" standalone="no"?>
<svg
   xmlns:dc="http://purl.org/dc/elements/1.1/"
   xmlns:cc="http://creativecommons.org/ns#"
   xmlns:rdf="http://www.w3.org/1999/02/22-rdf-syntax-ns#"
   xmlns:svg="http://www.w3.org/2000/svg"
   xmlns="http://www.w3.org/2000/svg"
   xmlns:sodipodi="http://sodipodi.sourceforge.net/DTD/sodipodi-0.dtd"
   xmlns:inkscape="http://www.inkscape.org/namespaces/inkscape"
   aria-hidden="true"
   focusable="false"
   data-prefix="fas"
   data-icon="map-marker-alt"
   class="svg-inline--fa fa-map-marker-alt fa-w-12"
   role="img"
   viewBox="0 0 50 66.666999"
   version="1.1"
   id="svg4"
   sodipodi:docname="map-marker-alt-solid.svg"
   width="50"
   height="66.667"
   inkscape:version="0.92.3 (2405546, 2018-03-11)">
  <metadata
     id="metadata10">
    <rdf:RDF>
      <cc:Work
         rdf:about="">
        <dc:format>image/svg+xml</dc:format>
        <dc:type
           rdf:resource="http://purl.org/dc/dcmitype/StillImage" />
        <dc:title></dc:title>
      </cc:Work>
    </rdf:RDF>
  </metadata>
  <defs
     id="defs8" />
  <sodipodi:namedview
     pagecolor="#ffffff"
     bordercolor="#666666"
     borderopacity="1"
     objecttolerance="10"
     gridtolerance="10"
     guidetolerance="10"
     inkscape:pageopacity="0"
     inkscape:pageshadow="2"
     inkscape:window-width="1445"
     inkscape:window-height="808"
     id="namedview6"
     showgrid="false"
     inkscape:zoom="0.4609375"
     inkscape:cx="-425.98013"
     inkscape:cy="256"
     inkscape:window-x="0"
     inkscape:window-y="0"
     inkscape:window-maximized="0"
     inkscape:current-layer="svg4" />
  <path
     d="M 22.430729,65.322077 C 3.5117188,37.895117 0,35.080277 0,25.000459 0,11.193299 11.192839,4.5944629e-4 25,4.5944629e-4 c 13.807161,0 25,11.19283955371 25,24.99999955371 0,10.079818 -3.511719,12.894658 -22.430729,40.321618 -1.241536,1.79349 -3.897136,1.79336 -5.138542,0 z M 25,35.417127 c 5.752995,0 10.416666,-4.663673 10.416666,-10.416668 0,-5.752995 -4.663671,-10.416665 -10.416666,-10.416665 -5.752995,0 -10.416666,4.66367 -10.416666,10.416665 0,5.752995 4.663671,10.416668 10.416666,10.416668 z"
     id="path2"
     inkscape:connector-curvature="0"
     style="fill:currentColor;stroke-width:0.13020833" />
</svg>
