<?xml version="1.0" encoding="UTF-8" standalone="no"?>
<svg
   xmlns:dc="http://purl.org/dc/elements/1.1/"
   xmlns:cc="http://creativecommons.org/ns#"
   xmlns:rdf="http://www.w3.org/1999/02/22-rdf-syntax-ns#"
   xmlns:svg="http://www.w3.org/2000/svg"
   xmlns="http://www.w3.org/2000/svg"
   xmlns:sodipodi="http://sodipodi.sourceforge.net/DTD/sodipodi-0.dtd"
   xmlns:inkscape="http://www.inkscape.org/namespaces/inkscape"
   aria-hidden="true"
   focusable="false"
   data-prefix="fas"
   data-icon="mobile-alt"
   class="svg-inline--fa fa-mobile-alt fa-w-10"
   role="img"
   viewBox="0 0 50 80"
   version="1.1"
   id="svg4"
   sodipodi:docname="mobile-alt-solid.svg"
   width="50"
   height="80"
   inkscape:version="0.92.3 (2405546, 2018-03-11)">
  <metadata
     id="metadata10">
    <rdf:RDF>
      <cc:Work
         rdf:about="">
        <dc:format>image/svg+xml</dc:format>
        <dc:type
           rdf:resource="http://purl.org/dc/dcmitype/StillImage" />
        <dc:title></dc:title>
      </cc:Work>
    </rdf:RDF>
  </metadata>
  <defs
     id="defs8" />
  <sodipodi:namedview
     pagecolor="#ffffff"
     bordercolor="#666666"
     borderopacity="1"
     objecttolerance="10"
     gridtolerance="10"
     guidetolerance="10"
     inkscape:pageopacity="0"
     inkscape:pageshadow="2"
     inkscape:window-width="1001"
     inkscape:window-height="480"
     id="namedview6"
     showgrid="false"
     inkscape:zoom="0.4609375"
     inkscape:cx="-110.10169"
     inkscape:cy="256"
     inkscape:window-x="407"
     inkscape:window-y="66"
     inkscape:window-maximized="0"
     inkscape:current-layer="svg4" />
  <path
     d="M 42.5,0 H 7.5 C 3.359375,0 0,3.35937 0,7.5 v 65 C 0,76.64062 3.359375,80 7.5,80 h 35 C 46.640625,80 50,76.64062 50,72.5 V 7.5 C 50,3.35937 46.640625,0 42.5,0 Z M 25,75 c -2.765625,0 -5,-2.23438 -5,-5 0,-2.76563 2.234375,-5 5,-5 2.765625,0 5,2.23437 5,5 0,2.76562 -2.234375,5 -5,5 z M 42.5,58.125 C 42.5,59.15625 41.65625,60 40.625,60 H 9.375 C 8.34375,60 7.5,59.15625 7.5,58.125 V 9.375 C 7.5,8.34375 8.34375,7.5 9.375,7.5 h 31.25 c 1.03125,0 1.875,0.84375 1.875,1.875 z"
     id="path2"
     inkscape:connector-curvature="0"
     style="fill:currentColor;stroke-width:0.15625" />
</svg>
