<?xml version="1.0" encoding="UTF-8" standalone="no"?>
<svg
   xmlns:dc="http://purl.org/dc/elements/1.1/"
   xmlns:cc="http://creativecommons.org/ns#"
   xmlns:rdf="http://www.w3.org/1999/02/22-rdf-syntax-ns#"
   xmlns:svg="http://www.w3.org/2000/svg"
   xmlns="http://www.w3.org/2000/svg"
   xmlns:sodipodi="http://sodipodi.sourceforge.net/DTD/sodipodi-0.dtd"
   xmlns:inkscape="http://www.inkscape.org/namespaces/inkscape"
   aria-hidden="true"
   focusable="false"
   data-prefix="fas"
   data-icon="store"
   class="svg-inline--fa fa-store fa-w-20"
   role="img"
   viewBox="0 0 60.000002 70.000002"
   version="1.1"
   id="svg4"
   sodipodi:docname="store-solid.svg"
   width="60"
   height="70"
   inkscape:version="1.0.1 (3bc2e813f5, 2020-09-07)">
  <metadata
     id="metadata10">
    <rdf:RDF>
      <cc:Work
         rdf:about="">
        <dc:format>image/svg+xml</dc:format>
        <dc:type
           rdf:resource="http://purl.org/dc/dcmitype/StillImage" />
        <dc:title></dc:title>
      </cc:Work>
    </rdf:RDF>
  </metadata>
  <defs
     id="defs8" />
  <sodipodi:namedview
     pagecolor="#ffffff"
     bordercolor="#666666"
     borderopacity="1"
     objecttolerance="10"
     gridtolerance="10"
     guidetolerance="10"
     inkscape:pageopacity="0"
     inkscape:pageshadow="2"
     inkscape:window-width="1600"
     inkscape:window-height="877"
     id="namedview6"
     showgrid="false"
     inkscape:zoom="3.5039502"
     inkscape:cx="32.660101"
     inkscape:cy="40.695425"
     inkscape:window-x="-8"
     inkscape:window-y="-8"
     inkscape:window-maximized="1"
     inkscape:current-layer="svg4"
     inkscape:document-rotation="0"
     units="px"
     width="60mm" />
  <path
     d="M 58.637876,16.214436 52.315693,2.0503845 C 51.750691,0.77890083 50.747324,-4e-4 49.675769,-4e-4 H 10.320424 c -1.0715565,0 -2.0749229,0.77930083 -2.6399254,2.0507845 L 1.3583159,16.214436 c -3.2633764,7.314452 -0.37017405,17.486321 5.727956,18.648434 0.438364,0.08203 0.8864693,0.123116 1.3345747,0.123116 2.8834614,0 5.4357144,-1.777342 7.1891694,-4.525391 1.753456,2.748049 4.31545,4.525391 7.189169,4.525391 2.883461,0 5.435713,-1.777342 7.18917,-4.525391 1.753456,2.748049 4.31545,4.525391 7.189169,4.525391 2.883461,0 5.435713,-1.777342 7.18917,-4.525391 1.763197,2.748049 4.315449,4.525391 7.189169,4.525391 0.457846,0 0.89621,-0.04093 1.334575,-0.123116 6.117612,-1.148437 9.020556,-11.320308 5.747438,-18.648434 z m -7.06253,23.16015 c -0.974143,0 -1.938544,-0.205081 -2.873721,-0.519533 V 52.499587 H 11.294566 V 38.855053 c -0.935176,0.300792 -1.8995771,0.519533 -2.8737194,0.519533 -0.5844853,0 -1.178712,-0.05474 -1.7534559,-0.164038 C 6.1218711,39.10125 5.5860929,38.92343 5.0697976,38.718365 v 26.906241 c 0,2.419921 1.3930233,4.374994 3.1172549,4.374994 H 51.828623 c 1.72423,0 3.117254,-1.955073 3.117254,-4.374994 V 38.718365 c -0.526037,0.218741 -1.052074,0.396471 -1.597592,0.492183 -0.594227,0.109293 -1.178712,0.164038 -1.772939,0.164038 z"
     id="path2"
     inkscape:connector-curvature="0"
     style="fill:currentColor;stroke-width:0.115405" />
</svg>
