<?xml version="1.0" encoding="UTF-8" standalone="no"?>
<svg
   xmlns:dc="http://purl.org/dc/elements/1.1/"
   xmlns:cc="http://creativecommons.org/ns#"
   xmlns:rdf="http://www.w3.org/1999/02/22-rdf-syntax-ns#"
   xmlns:svg="http://www.w3.org/2000/svg"
   xmlns="http://www.w3.org/2000/svg"
   xmlns:sodipodi="http://sodipodi.sourceforge.net/DTD/sodipodi-0.dtd"
   xmlns:inkscape="http://www.inkscape.org/namespaces/inkscape"
   aria-hidden="true"
   focusable="false"
   data-prefix="fas"
   data-icon="store"
   class="svg-inline--fa fa-store fa-w-20"
   role="img"
   viewBox="0 0 50 41.563"
   version="1.1"
   id="svg4"
   sodipodi:docname="store-solid.svg"
   width="50"
   height="41.563"
   inkscape:version="0.92.3 (2405546, 2018-03-11)">
  <metadata
     id="metadata10">
    <rdf:RDF>
      <cc:Work
         rdf:about="">
        <dc:format>image/svg+xml</dc:format>
        <dc:type
           rdf:resource="http://purl.org/dc/dcmitype/StillImage" />
        <dc:title></dc:title>
      </cc:Work>
    </rdf:RDF>
  </metadata>
  <defs
     id="defs8" />
  <sodipodi:namedview
     pagecolor="#ffffff"
     bordercolor="#666666"
     borderopacity="1"
     objecttolerance="10"
     gridtolerance="10"
     guidetolerance="10"
     inkscape:pageopacity="0"
     inkscape:pageshadow="2"
     inkscape:window-width="1001"
     inkscape:window-height="480"
     id="namedview6"
     showgrid="false"
     inkscape:zoom="0.4609375"
     inkscape:cx="37.898305"
     inkscape:cy="256"
     inkscape:window-x="0"
     inkscape:window-y="0"
     inkscape:window-maximized="0"
     inkscape:current-layer="svg4" />
  <path
     d="M 48.864897,9.62737 43.596411,1.21728 C 43.125576,0.46232 42.289437,-4e-4 41.396474,-4e-4 H 8.6003533 c -0.8929637,0 -1.7291024,0.46272 -2.1999378,1.21768 L 1.1319299,9.62737 c -2.7194803,4.34305 -0.30847836,10.38273 4.7732967,11.07275 0.3653033,0.0487 0.7387244,0.0731 1.1121456,0.0731 2.4028841,0 4.5297618,-1.05532 5.9909748,-2.68701 1.461213,1.63169 3.596208,2.68701 5.990974,2.68701 2.402884,0 4.529761,-1.05532 5.990975,-2.68701 1.461213,1.63169 3.596208,2.68701 5.990974,2.68701 2.402884,0 4.529761,-1.05532 5.990975,-2.68701 1.469331,1.63169 3.596208,2.68701 5.990974,2.68701 0.381539,0 0.746842,-0.0243 1.112146,-0.0731 5.09801,-0.6819 7.51713,-6.72158 4.789532,-11.07275 z m -5.885442,13.75164 c -0.811786,0 -1.615453,-0.12177 -2.394767,-0.30848 v 8.10162 H 9.4121384 v -8.10162 c -0.7793137,0.1786 -1.582981,0.30848 -2.3947662,0.30848 -0.4870711,0 -0.98226,-0.0325 -1.4612133,-0.0974 C 5.1015593,23.21671 4.6550774,23.11113 4.2248313,22.98937 V 38.9653 c 0,1.43686 1.1608528,2.59771 2.5977125,2.59771 H 43.190519 c 1.436859,0 2.597712,-1.16085 2.597712,-2.59771 V 22.98937 c -0.438364,0.12988 -0.876728,0.23541 -1.331327,0.29224 -0.495189,0.0649 -0.98226,0.0974 -1.477449,0.0974 z"
     id="path2"
     inkscape:connector-curvature="0"
     style="fill:currentColor;stroke-width:0.08117852" />
</svg>
